<svg width="70" height="56" viewBox="0 0 70 56" fill="none" xmlns="http://www.w3.org/2000/svg">
<g clip-path="url(#clip0_180_380)">
<path d="M35.0766 38.4672C35.9844 28.6672 44.2203 21 54.25 21C55.2234 21 56.175 21.0766 57.1047 21.2078L33.8516 0.765625C33.1953 0.21875 32.3203 0 31.5547 0C30.7891 0 29.9141 0.109375 29.1484 0.875L1.09375 25.3203C0.328125 26.0859 0 26.9609 0 27.9453C0 29.9141 1.53125 31.4563 3.5 31.4563H7V52.5C7 54.4359 8.56406 56 10.5 56H21C22.9359 56 24.5 54.4359 24.5 52.5V41.9672C24.5 40.0313 26.0641 38.4672 28 38.4672H35.0766ZM70 40.25C70 31.5547 62.9453 24.5 54.25 24.5C45.5547 24.5 38.5 31.5547 38.5 40.25C38.5 48.9453 45.5547 56 54.25 56C62.9453 56 70 48.9453 70 40.25ZM61.6109 35.5141C62.2891 36.1922 62.2891 37.3078 61.6109 37.9859L53.7359 45.8609C53.0578 46.5391 51.9422 46.5391 51.2641 45.8609L46.8891 41.4859C46.2109 40.8078 46.2109 39.6922 46.8891 39.0141C47.5672 38.3359 48.6828 38.3359 49.3609 39.0141L52.5 42.1531L59.1391 35.5141C59.8172 34.8359 60.9328 34.8359 61.6109 35.5141Z" fill="#8559E3"/>
</g>
<defs>
<clipPath id="clip0_180_380">
<rect width="70" height="56" fill="white"/>
</clipPath>
</defs>
</svg>
