<svg width="59" height="47" viewBox="0 0 59 47" fill="none" xmlns="http://www.w3.org/2000/svg">
<g clip-path="url(#clip0_126_463)">
<path d="M29.4393 32.285C30.2012 24.06 37.1135 17.625 45.5313 17.625C46.3482 17.625 47.1469 17.6893 47.9272 17.7994L28.4111 0.642578C27.8604 0.183594 27.126 0 26.4834 0C25.8408 0 25.1064 0.0917969 24.4639 0.734375L0.917969 21.251C0.275391 21.8936 0 22.6279 0 23.4541C0 25.1064 1.28516 26.4008 2.9375 26.4008H5.875V44.0625C5.875 45.6873 7.1877 47 8.8125 47H17.625C19.2498 47 20.5625 45.6873 20.5625 44.0625V35.2225C20.5625 33.5977 21.8752 32.285 23.5 32.285H29.4393ZM58.75 33.7812C58.75 26.4834 52.8291 20.5625 45.5313 20.5625C38.2334 20.5625 32.3125 26.4834 32.3125 33.7812C32.3125 41.0791 38.2334 47 45.5313 47C52.8291 47 58.75 41.0791 58.75 33.7812ZM51.7092 29.8064C52.2783 30.3756 52.2783 31.3119 51.7092 31.8811L45.0998 38.4904C44.5307 39.0596 43.5943 39.0596 43.0252 38.4904L39.3533 34.8186C38.7842 34.2494 38.7842 33.3131 39.3533 32.7439C39.9225 32.1748 40.8588 32.1748 41.4279 32.7439L44.0625 35.3785L49.6346 29.8064C50.2037 29.2373 51.14 29.2373 51.7092 29.8064Z" fill="black"/>
</g>
<defs>
<clipPath id="clip0_126_463">
<rect width="58.75" height="47" fill="white"/>
</clipPath>
</defs>
</svg>
