<svg width="48" height="47" viewBox="0 0 48 47" fill="none" xmlns="http://www.w3.org/2000/svg">
<path d="M42.5575 36.9279C41.3866 35.8217 40.247 34.6838 39.14 33.5154C38.21 32.5834 37.65 31.9054 37.65 31.9054L30.65 28.6088C33.4525 25.4741 34.9992 21.4387 35 17.2595C35 7.74457 27.15 0 17.5 0C7.85 0 0 7.74457 0 17.2595C0 26.7744 7.85 34.5189 17.5 34.5189C21.9075 34.5189 25.925 32.8916 29.0075 30.2312L32.35 37.135C32.35 37.135 33.0375 37.6873 33.9825 38.6045C34.95 39.4995 36.2225 40.7102 37.4425 41.975L40.8375 45.4072L42.3475 47L47.65 41.7704L46.035 40.2811C45.0875 39.3639 43.8225 38.1459 42.5575 36.9279ZM17.5 29.5877C10.6075 29.5877 5 24.0572 5 17.2595C5 10.4617 10.6075 4.93128 17.5 4.93128C24.3925 4.93128 30 10.4617 30 17.2595C30 24.0572 24.3925 29.5877 17.5 29.5877Z" fill="black" fill-opacity="0.5"/>
</svg>
