<svg width="173" height="81" viewBox="0 0 173 81" fill="none" xmlns="http://www.w3.org/2000/svg">
<g filter="url(#filter0_d_270_2)">
<path fill-rule="evenodd" clip-rule="evenodd" d="M36.8889 7.22241H0V66.778H36.8889V7.22241ZM6.6665 14.3333H18.2221V25.8888H6.6665V14.3333ZM18.2221 27.2222H6.6665V38.7778H18.2221V27.2222ZM29.333 47.6665C30.3148 47.6665 31.1107 46.8705 31.1107 45.8887C31.1107 44.9069 30.3148 44.1109 29.333 44.1109C28.3511 44.1109 27.5552 44.9069 27.5552 45.8887C27.5552 46.8705 28.3511 47.6665 29.333 47.6665ZM31.1107 14.3333H19.5552V25.8888H31.1107V14.3333Z" fill="white"/>
</g>
<path d="M76.9065 60.84C73.7465 60.84 70.7865 60.38 68.0265 59.46C65.2665 58.5 62.8465 57.16 60.7665 55.44C58.6865 53.68 57.0665 51.6 55.9065 49.2C54.7465 46.76 54.1665 44.06 54.1665 41.1C54.1665 38.38 54.7065 35.78 55.7865 33.3C56.8665 30.78 58.4465 28.54 60.5265 26.58C62.6465 24.62 65.2265 23.06 68.2665 21.9C71.3065 20.74 74.7665 20.16 78.6465 20.16C79.8865 20.16 81.1665 20.26 82.4865 20.46C83.8465 20.66 85.1465 20.92 86.3865 21.24C87.6665 21.56 88.7665 21.92 89.6865 22.32C90.0065 22.48 90.2865 22.68 90.5265 22.92C90.8065 23.16 90.9665 23.5 91.0065 23.94C91.2065 25.38 91.3265 26.74 91.3665 28.02C91.4465 29.26 91.4865 30.32 91.4865 31.2C91.4865 31.68 91.3065 32 90.9465 32.16C90.6265 32.32 90.2665 32.32 89.8665 32.16C89.5065 32 89.2465 31.68 89.0865 31.2C88.8065 30.4 88.4865 29.56 88.1265 28.68C87.8065 27.8 87.3065 27.04 86.6265 26.4C85.8265 25.56 84.7265 24.86 83.3265 24.3C81.9265 23.74 80.1865 23.46 78.1065 23.46C76.1065 23.46 74.3065 23.9 72.7065 24.78C71.1065 25.62 69.7465 26.8 68.6265 28.32C67.5065 29.8 66.6465 31.5 66.0465 33.42C65.4465 35.3 65.1465 37.28 65.1465 39.36C65.1465 42.04 65.4065 44.5 65.9265 46.74C66.4465 48.94 67.2465 50.84 68.3265 52.44C69.4065 54.04 70.7465 55.28 72.3465 56.16C73.9865 57 75.9065 57.42 78.1065 57.42C81.1065 57.42 83.5065 56.8 85.3065 55.56C87.1465 54.32 88.6865 52.36 89.9265 49.68C90.2465 48.96 90.7065 48.62 91.3065 48.66C91.9065 48.7 92.2065 49.04 92.2065 49.68C92.2065 50.24 92.1465 50.9 92.0265 51.66C91.9465 52.38 91.8065 53.18 91.6065 54.06C91.4465 54.9 91.2265 55.8 90.9465 56.76C90.8265 57.2 90.6265 57.56 90.3465 57.84C90.0665 58.12 89.7465 58.36 89.3865 58.56C87.8665 59.24 86.0665 59.78 83.9865 60.18C81.9065 60.62 79.5465 60.84 76.9065 60.84ZM97.6056 60.18C97.3256 60.18 97.0456 60.1 96.7656 59.94C96.5256 59.78 96.4056 59.56 96.4056 59.28C96.4056 58.96 96.5256 58.7 96.7656 58.5C97.0456 58.3 97.3856 58.14 97.7856 58.02C98.7056 57.74 99.3056 57.46 99.5856 57.18C99.8656 56.86 100.006 56.38 100.006 55.74V41.76C100.006 40.96 99.9056 40.32 99.7056 39.84C99.5056 39.36 99.0656 39.02 98.3856 38.82C98.1856 38.74 97.9856 38.64 97.7856 38.52C97.6256 38.36 97.5456 38.08 97.5456 37.68C97.5456 37.08 97.8056 36.72 98.3256 36.6C99.6456 36.28 101.106 35.88 102.706 35.4C104.346 34.88 105.766 34.34 106.966 33.78C107.166 33.66 107.426 33.52 107.746 33.36C108.066 33.2 108.306 33.12 108.466 33.12C108.866 33.12 109.066 33.36 109.066 33.84C109.066 34.04 109.046 34.46 109.006 35.1C109.006 35.74 108.986 36.4 108.946 37.08C108.906 37.72 108.886 38.24 108.886 38.64C108.886 39.04 108.966 39.24 109.126 39.24C109.726 38.4 110.426 37.56 111.226 36.72C112.066 35.88 112.966 35.18 113.926 34.62C114.926 34.06 115.926 33.78 116.926 33.78C118.406 33.78 119.446 34.06 120.046 34.62C120.646 35.18 120.946 35.9 120.946 36.78C120.946 37.42 120.766 38.14 120.406 38.94C120.046 39.7 119.586 40.36 119.026 40.92C118.466 41.48 117.866 41.76 117.226 41.76C116.826 41.76 116.406 41.66 115.966 41.46C115.566 41.26 115.146 41.06 114.706 40.86C114.306 40.66 113.906 40.48 113.506 40.32C113.106 40.12 112.746 40.02 112.426 40.02C111.386 40.02 110.506 40.42 109.786 41.22C109.066 41.98 108.706 43.52 108.706 45.84V55.08C108.706 55.96 108.946 56.6 109.426 57C109.906 57.4 110.706 57.76 111.826 58.08C112.266 58.2 112.586 58.36 112.786 58.56C113.026 58.72 113.146 58.96 113.146 59.28C113.146 59.88 112.826 60.18 112.186 60.18C110.986 60.18 109.666 60.12 108.226 60C106.786 59.92 105.546 59.88 104.506 59.88C103.826 59.88 103.106 59.9 102.346 59.94C101.586 59.98 100.806 60.02 100.006 60.06C99.2056 60.14 98.4056 60.18 97.6056 60.18ZM123.264 60.18C123.024 60.18 122.804 60.1 122.604 59.94C122.404 59.78 122.304 59.58 122.304 59.34C122.304 59.02 122.384 58.76 122.544 58.56C122.744 58.36 123.004 58.22 123.324 58.14C124.404 57.86 125.144 57.58 125.544 57.3C125.984 57.02 126.204 56.56 126.204 55.92V42.96C126.204 41.52 125.984 40.56 125.544 40.08C125.144 39.56 124.504 39.24 123.624 39.12C123.384 39.08 123.204 38.96 123.084 38.76C122.964 38.52 122.904 38.26 122.904 37.98C122.904 37.34 123.144 36.98 123.624 36.9C125.784 36.46 127.744 35.88 129.504 35.16C131.264 34.4 132.604 33.82 133.524 33.42C134.244 33.1 134.684 32.94 134.844 32.94C135.404 32.94 135.684 33.22 135.684 33.78C135.644 34.54 135.544 35.44 135.384 36.48C135.264 37.48 135.144 38.52 135.024 39.6C134.944 40.68 134.904 41.72 134.904 42.72V55.86C134.904 56.38 135.104 56.8 135.504 57.12C135.904 57.44 136.664 57.78 137.784 58.14C138.104 58.26 138.364 58.4 138.564 58.56C138.764 58.72 138.864 58.96 138.864 59.28C138.864 59.84 138.564 60.12 137.964 60.12C137.204 60.12 136.364 60.1 135.444 60.06C134.564 60.02 133.684 59.98 132.804 59.94C131.964 59.9 131.184 59.88 130.464 59.88C129.784 59.88 129.024 59.9 128.184 59.94C127.384 59.98 126.564 60.02 125.724 60.06C124.884 60.14 124.064 60.18 123.264 60.18ZM130.224 30.72C128.864 30.72 127.684 30.22 126.684 29.22C125.684 28.22 125.184 27.04 125.184 25.68C125.184 24.2 125.684 22.96 126.684 21.96C127.684 20.96 128.864 20.46 130.224 20.46C131.704 20.46 132.944 20.96 133.944 21.96C134.944 22.96 135.444 24.2 135.444 25.68C135.444 27.04 134.944 28.22 133.944 29.22C132.944 30.22 131.704 30.72 130.224 30.72ZM156.184 60.84C154.944 60.84 153.824 60.74 152.824 60.54C151.824 60.34 150.924 60.12 150.124 59.88C149.564 59.72 149.044 59.6 148.564 59.52C148.124 59.4 147.724 59.34 147.364 59.34C146.964 59.34 146.564 59.42 146.164 59.58C145.764 59.7 145.404 59.88 145.084 60.12C144.684 60.4 144.364 60.54 144.124 60.54C143.724 60.54 143.424 60.46 143.224 60.3C143.064 60.14 142.984 59.96 142.984 59.76C142.984 59.4 143.104 58.68 143.344 57.6C143.584 56.52 143.684 55.12 143.644 53.4L143.344 27.24C143.344 26.16 143.224 25.22 142.984 24.42C142.744 23.58 142.124 23.08 141.124 22.92C140.924 22.88 140.744 22.78 140.584 22.62C140.464 22.46 140.404 22.24 140.404 21.96C140.404 21.72 140.464 21.52 140.584 21.36C140.704 21.2 140.864 21.1 141.064 21.06C142.024 20.86 143.104 20.58 144.304 20.22C145.544 19.82 146.744 19.4 147.904 18.96C149.064 18.52 149.984 18.18 150.664 17.94C151.064 17.78 151.364 17.7 151.564 17.7C151.844 17.7 152.024 17.78 152.104 17.94C152.224 18.1 152.284 18.28 152.284 18.48C152.284 18.76 152.224 19.24 152.104 19.92C152.024 20.56 151.984 21.16 151.984 21.72L151.924 34.68C151.924 35.16 151.964 35.56 152.044 35.88C152.164 36.16 152.304 36.3 152.464 36.3C153.704 35.5 154.964 34.9 156.244 34.5C157.524 34.06 158.744 33.84 159.904 33.84C162.024 33.84 163.924 34.4 165.604 35.52C167.284 36.6 168.604 38.08 169.564 39.96C170.564 41.84 171.064 43.98 171.064 46.38C171.064 49.22 170.424 51.74 169.144 53.94C167.904 56.1 166.164 57.8 163.924 59.04C161.724 60.24 159.144 60.84 156.184 60.84ZM157.144 58.14C158.144 58.14 158.984 57.68 159.664 56.76C160.344 55.8 160.864 54.56 161.224 53.04C161.624 51.48 161.824 49.8 161.824 48C161.824 46.4 161.624 44.78 161.224 43.14C160.864 41.5 160.264 40.14 159.424 39.06C158.624 37.94 157.564 37.38 156.244 37.38C155.724 37.38 155.004 37.46 154.084 37.62C153.204 37.78 152.484 38.06 151.924 38.46V51.48C151.924 52.76 152.164 53.92 152.644 54.96C153.164 55.96 153.824 56.74 154.624 57.3C155.424 57.86 156.264 58.14 157.144 58.14Z" fill="white"/>
<defs>
<filter id="filter0_d_270_2" x="0" y="7.22241" width="45.8887" height="73.5557" filterUnits="userSpaceOnUse" color-interpolation-filters="sRGB">
<feFlood flood-opacity="0" result="BackgroundImageFix"/>
<feColorMatrix in="SourceAlpha" type="matrix" values="0 0 0 0 0 0 0 0 0 0 0 0 0 0 0 0 0 0 127 0" result="hardAlpha"/>
<feOffset dx="5" dy="10"/>
<feGaussianBlur stdDeviation="2"/>
<feComposite in2="hardAlpha" operator="out"/>
<feColorMatrix type="matrix" values="0 0 0 0 0 0 0 0 0 0 0 0 0 0 0 0 0 0 0.25 0"/>
<feBlend mode="normal" in2="BackgroundImageFix" result="effect1_dropShadow_270_2"/>
<feBlend mode="normal" in="SourceGraphic" in2="effect1_dropShadow_270_2" result="shape"/>
</filter>
</defs>
</svg>
